<?xml version="1.0" encoding="utf-8"?>
<!-- Generator: Adobe Illustrator 25.3.1, SVG Export Plug-In . SVG Version: 6.00 Build 0)  -->
<svg version="1.1" id="图层_1" xmlns="http://www.w3.org/2000/svg" xmlns:xlink="http://www.w3.org/1999/xlink" x="0px" y="0px"
	 viewBox="0 0 200 200" style="enable-background:new 0 0 200 200;" xml:space="preserve">
<style type="text/css">
	.st0{fill:#F9A75D;}
	.st1{fill:#FFA000;}
	.st2{font-family:'Arial-BoldMT';}
	.st3{font-size:90px;}
</style>
<g>
	<path class="st0" d="M128,163.9H48.7c-10.2,0-18.4-8.3-18.4-18.4v-29.6c0-1,0.8-1.8,1.8-1.8l0,0c1,0,1.8,0.8,1.8,1.8l0,0v29.6
		c0,8.2,6.7,14.9,14.9,14.9l0,0h77.5v-19.7c0-1,0.8-1.8,1.8-1.8l0,0c1,0,1.8,0.8,1.8,1.8l0,0v21.5
		C129.7,163.1,128.9,163.9,128,163.9L128,163.9z M118.9,154.2H54.6c-8.4,0-15.3-6.8-15.3-15.3v-18.7c0-1,0.8-1.8,1.8-1.8l0,0
		c1,0,1.8,0.8,1.8,1.8l0,0v18.7c0,6.5,5.3,11.8,11.8,11.8h62.6V141c0-1,0.8-1.8,1.8-1.8l0,0c1,0,1.8,0.8,1.8,1.8l0,0v11.4
		C120.7,153.5,119.9,154.2,118.9,154.2L118.9,154.2L118.9,154.2z M120.2,107.9c-1,0-1.8-0.8-1.8-1.8l0,0V89.4c0-1,0.8-1.8,1.8-1.8
		l0,0c1,0,1.8,0.8,1.8,1.8l0,0v16.7C121.9,107.1,121.1,107.9,120.2,107.9L120.2,107.9z M41.1,129c-1,0-1.8-0.8-1.8-1.8V36.1
		c0-1,0.8-1.8,1.8-1.8h63.5c8.3,0,15.1,6.8,15.1,15.1v0.7c0,1-0.8,1.8-1.8,1.8l0,0c-1,0-1.8-0.8-1.8-1.8l0,0v-0.7
		c0-6.4-5.2-11.6-11.6-11.6l0,0H42.8v89.4C42.8,128.2,42,129,41.1,129z M32,127c-1,0-1.8-0.8-1.8-1.8V26.7c0-1,0.8-1.8,1.8-1.8h79.3
		c10.2,0.1,18.4,8.3,18.4,18.5v19.4c0,1-0.8,1.8-1.8,1.8l0,0c-1,0-1.8-0.8-1.8-1.8l0,0V43.4c0-8.2-6.7-14.9-14.9-14.9l0,0H33.8v96.7
		C33.8,126.2,33,127,32,127z"/>
	<path class="st0" d="M72.4,52.7H52.5c-1,0-1.8-0.8-1.8-1.8s0.8-1.8,1.8-1.8h19.9c1,0,1.8,0.8,1.8,1.8
		C74.1,51.9,73.3,52.7,72.4,52.7z M87.6,66.2H52.5c-1,0-1.8-0.8-1.8-1.8c0-1,0.8-1.8,1.8-1.8h35.1c1,0,1.8,0.8,1.8,1.8
		C89.3,65.5,88.5,66.2,87.6,66.2z"/>
	<text transform="matrix(1 0 0 1 38.8 141.2592)" class="st1 st2 st3">GB</text>
</g>
</svg>
