<?xml version="1.0" encoding="utf-8"?>
<!-- Generator: Adobe Illustrator 25.3.1, SVG Export Plug-In . SVG Version: 6.00 Build 0)  -->
<svg version="1.1" id="图层_1" xmlns="http://www.w3.org/2000/svg" xmlns:xlink="http://www.w3.org/1999/xlink" x="0px" y="0px"
	 viewBox="0 0 200 200" style="enable-background:new 0 0 200 200;" xml:space="preserve">
<style type="text/css">
	.st0{fill:none;stroke:#5987FC;stroke-width:3.6;stroke-miterlimit:10;}
	.st1{fill:#5987FC;}
	.st2{fill:#2A4DE8;}
	.st3{font-family:'Arial-BoldMT';}
	.st4{font-size:90px;}
</style>
<g>
	<path class="st0" d="M126.7,148.9c0,7.8-6.3,14.1-14.1,14.1H40.8c-7.8,0-14.1-6.3-14.1-14.1V37.1C26.7,29.3,33,23,40.8,23h71.8
		c7.8,0,14.1,6.3,14.1,14.1v45.2"/>
	<path class="st0" d="M105.5,149H48c-6.2,0-11.3-5-11.3-11.3V48.3c0-6.2,5-11.3,11.3-11.3h57.5c6.2,0,11.3,5,11.3,11.3v36.2"/>
	<rect x="46.4" y="53.9" class="st1" width="39" height="3.6"/>
	<rect x="46.4" y="79.1" class="st1" width="39" height="3.6"/>
	<rect x="46.4" y="104.2" class="st1" width="19" height="3.6"/>
	<text transform="matrix(1 0 0 1 35.2735 151.0756)" class="st2 st3 st4">QB</text>
</g>
</svg>
