<?xml version="1.0" encoding="utf-8"?>
<!-- Generator: Adobe Illustrator 25.3.1, SVG Export Plug-In . SVG Version: 6.00 Build 0)  -->
<svg version="1.1" id="图层_1" xmlns="http://www.w3.org/2000/svg" xmlns:xlink="http://www.w3.org/1999/xlink" x="0px" y="0px"
	 viewBox="0 0 230 230" style="enable-background:new 0 0 230 230;" xml:space="preserve">
<style type="text/css">
	.st0{display:none;fill:#FFCA28;}
	.st1{fill:#FFA000;}
	.st2{fill:#FFFFFF;}
	.st3{fill:#FFD580;}
	.st4{fill:url(#SVGID_1_);}
	.st5{fill:#FFF8E1;}
	.st6{font-family:'Arial-BoldMT';}
	.st7{font-size:90px;}
</style>
<path class="st0" d="M231.1,161.4H61.8c-4.8,0-13-4.4-13-12.6v-102c0-4.5,3.8-8.2,8.6-8.2h178.1c4.8,0,8.6,3.7,8.6,8.2v102
	C244.1,158.8,235.9,161.4,231.1,161.4L231.1,161.4z"/>
<g>
	<path class="st1" d="M190.8,197.4H21.5c-4.8,0-13-8-13-12.6v-130c0-4.5,3.8-8.2,8.6-8.2h178.1c4.8,0,8.6,3.7,8.6,8.2v130
		C203.8,189.3,195.6,197.4,190.8,197.4z"/>
	<path class="st1" d="M116.2,82H8.5V40c0-4.5,3.8-8.2,8.6-8.2H94c3.8,0,7.1,2.4,8.2,5.9L116.2,82z"/>
	<path class="st2" d="M181.7,187.2h-151c-4.8,0-8.6-3.7-8.6-8.2V67.3c0-4.5,3.8-8.2,8.6-8.2h151c4.8,0,8.6,3.7,8.6,8.2v111.6
		C190.3,183.5,186.4,187.2,181.7,187.2z"/>
	<path class="st3" d="M193.6,198.1H24.9c-6.3,0-11.5-5.1-11.5-11.5L29.8,83.3c0-6.3,5.1-11.5,11.5-11.5H210
		c6.3,0,11.5,5.1,11.5,11.5L205,186.6C205,193,199.9,198.1,193.6,198.1z"/>
	
		<linearGradient id="SVGID_1_" gradientUnits="userSpaceOnUse" x1="117.45" y1="-814.8" x2="117.45" y2="-692.5" gradientTransform="matrix(1 0 0 -1 0 -616.7)">
		<stop  offset="0" style="stop-color:#FFA000"/>
		<stop  offset="1" style="stop-color:#FFCA28"/>
	</linearGradient>
	<path class="st4" d="M193.6,198.1H24.9c-6.3,0-11.5-5.1-11.5-11.5l16.4-99.3c0-6.3,5.1-11.5,11.5-11.5H210
		c6.3,0,11.5,5.1,11.5,11.5L205,186.6C205,193,199.9,198.1,193.6,198.1z"/>
	<path class="st5" d="M91.4,95.7H57.6c-1.7,0-3.1-1.9-3.1-4.1c0-2.3,1.4-4.1,3.1-4.1h33.8c1.7,0,3.1,1.9,3.1,4.1
		C94.5,93.8,93.1,95.7,91.4,95.7z"/>
	<path class="st5" d="M91.4,112.6H57.6c-1.7,0-3.1-1.9-3.1-4.1c0-2.3,1.4-4.1,3.1-4.1h33.8c1.7,0,3.1,1.9,3.1,4.1
		C94.5,110.8,93.1,112.6,91.4,112.6z"/>
	<text transform="matrix(1 0 0 1 69.6016 183.1797)" class="st2 st6 st7">GB</text>
</g>
</svg>
