<?xml version="1.0" encoding="utf-8"?>
<!-- Generator: Adobe Illustrator 25.3.1, SVG Export Plug-In . SVG Version: 6.00 Build 0)  -->
<svg version="1.1" id="图层_1" xmlns="http://www.w3.org/2000/svg" xmlns:xlink="http://www.w3.org/1999/xlink" x="0px" y="0px"
	 viewBox="0 0 13 13" style="enable-background:new 0 0 13 13;" xml:space="preserve">
<style type="text/css">
	.st0{fill:#588AB9;}
	.st1{display:none;fill:#588AB9;}
</style>
<g>
	<path class="st0" d="M2.6,3.8h4.6v0.9H2.6V3.8z M2.6,6.5h3v0.9h-3V6.5z M2.6,9.2h1.5v0.9H2.6L2.6,9.2z"/>
	<path class="st0" d="M8.8,12.3c-0.7-0.1-1.4-0.4-2-0.9c-0.6-0.6-0.9-1.4-0.9-2.3c0-1.3,0.8-2.5,2-3c-1.2,0.5-2,1.6-2,3
		C5.9,10.8,7.1,12.1,8.8,12.3L8.8,12.3z M9.4,12.3c1.6-0.2,2.9-1.5,2.9-3.2c0-1.3-0.8-2.5-2-3c1.2,0.5,2,1.6,2,3
		c0,0.9-0.3,1.7-0.9,2.3C10.8,11.9,10.1,12.2,9.4,12.3L9.4,12.3z"/>
	<path class="st0" d="M9.1,5.4c-2,0-3.7,1.6-3.7,3.7c0,1,0.4,1.9,1.1,2.6c0.7,0.7,1.6,1.1,2.6,1.1s1.9-0.4,2.6-1.1
		c0.7-0.7,1.1-1.6,1.1-2.6C12.8,7.1,11.1,5.4,9.1,5.4z M9.1,11.9c-1.5,0-2.8-1.2-2.8-2.8s1.2-2.8,2.8-2.8s2.8,1.2,2.8,2.8
		S10.6,11.9,9.1,11.9z"/>
	<path class="st1" d="M10.8,8l-0.6-0.6L9.1,8.5L8,7.3L7.3,8l1.1,1.1l-1.1,1.1L8,10.8l1.1-1.1l1.1,1.1l0.6-0.6L9.7,9.1L10.8,8z"/>
	<rect x="7.5" y="8.6" class="st0" width="3.4" height="1"/>
	<path class="st0" d="M5.4,2.2c0.4,0,0.8-0.4,0.8-0.8c0-0.3-0.2-0.6-0.5-0.7c0.3,0.1,0.5,0.4,0.5,0.7c0,0.1,0,0.1,0,0.2L5.9,2.2H5.4
		z M4,2.2L3.8,1.7c0-0.1,0-0.1,0-0.2c0-0.3,0.2-0.6,0.5-0.7C4,0.9,3.8,1.2,3.8,1.5c0,0.4,0.3,0.8,0.8,0.8H4z"/>
	<path class="st0" d="M5.3,0.2H4.6c-0.7,0-1.2,0.5-1.2,1.2c0,0.1,0,0.2,0,0.3H2.6v0.9h4.6V1.8H6.5c0-0.1,0-0.2,0-0.3
		C6.6,0.8,6,0.2,5.3,0.2z M4.6,1.8c-0.2,0-0.3-0.1-0.3-0.3s0.1-0.3,0.3-0.3h0.8c0.2,0,0.3,0.1,0.3,0.3S5.5,1.8,5.3,1.8H4.6z"/>
	<path class="st0" d="M9.4,12.3c1.6-0.2,2.9-1.5,2.9-3.2c0-0.3-0.1-0.7-0.2-1c0.1,0.3,0.2,0.7,0.2,1c0,0.9-0.3,1.7-0.9,2.3
		C10.8,11.9,10.1,12.2,9.4,12.3L9.4,12.3z M8.5,12.3c-0.4-0.1-0.7-0.2-1-0.4l-0.1-0.1H7.1l-0.6-0.7c-0.5-0.6-0.7-1.3-0.7-2
		c0-0.8,0.3-1.6,0.9-2.2c0.3-0.3,0.6-0.6,1-0.7C6.6,6.7,5.9,7.8,5.9,9.1C5.9,10.7,7,12,8.5,12.3L8.5,12.3z M1.3,11.8
		c-0.1,0-0.2-0.1-0.3-0.2c0,0-0.1-0.1-0.1-0.1C1,11.6,1.1,11.7,1.3,11.8z M0.7,11.2c0-0.1,0-0.1,0-0.2V3c0-0.1,0-0.1,0-0.2
		c0,0.1,0,0.1,0,0.2v8C0.7,11.1,0.7,11.2,0.7,11.2z M12,7.7c-0.2-0.4-0.4-0.7-0.7-1c0.1,0.1,0.2,0.2,0.2,0.2
		C11.7,7.2,11.9,7.5,12,7.7z M9.5,5.9c-0.2,0-0.3,0-0.5,0c-0.1,0-0.1,0-0.2,0l0.4,0V3c0-0.2,0-0.4-0.2-0.5C9.2,2.6,9.2,2.8,9.2,3
		v2.8C9.2,5.8,9.5,5.9,9.5,5.9z M0.9,2.6c0,0,0.1-0.1,0.1-0.1c0.1-0.1,0.2-0.1,0.3-0.2C1.1,2.4,1,2.5,0.9,2.6z"/>
	<path class="st0" d="M8.6,1.8H8.1v0.9h0.5c0.1,0,0.1,0,0.1,0.1c0,0.1,0.1,0.2,0.1,0.3v2.4C6.9,5.6,5.4,7.2,5.4,9.1
		c0,0.8,0.3,1.6,0.8,2.3H1.6c-0.2,0-0.5-0.2-0.5-0.3V3c0-0.1,0.2-0.3,0.5-0.3h0.3V1.8H1.6C1.3,1.8,1,1.9,0.7,2.1
		C0.4,2.4,0.3,2.7,0.3,3v8c0,0.3,0.2,0.7,0.5,0.9c0.3,0.2,0.6,0.3,0.9,0.3h5.6c0.6,0.3,1.2,0.5,1.8,0.5c1,0,1.9-0.4,2.6-1.1
		c0.7-0.7,1.1-1.6,1.1-2.6c0-1.8-1.3-3.3-3.1-3.6V3C9.7,2.3,9.2,1.8,8.6,1.8z M9.1,11.9c-1.5,0-2.8-1.2-2.8-2.8s1.2-2.8,2.8-2.8
		s2.8,1.2,2.8,2.8C11.9,10.6,10.6,11.9,9.1,11.9z"/>
</g>
</svg>
